<?xml version="1.0" encoding="UTF-8"?>
<svg version="1.1" viewBox="0 0 1600 1600" width="1280" height="1280" xmlns="http://www.w3.org/2000/svg">
<path transform="translate(1086 394)" d="m0 0c5.9 4.19 11.9 8.79 16.9 14v2c0.99 0.33 1.98 0.66 3 1 11.9 16 15.4 32.5 14 52-1.5 9.97-5.62 17.6-11 26 1.11 0.159 2.22 0.317 3.37 0.48 8.68 1.33 16.1 2.87 23.6 7.52 0.851 0.5 1.7 1 2.58 1.52 1.71 1.02 3.42 2.04 5.11 3.09 1.95 1.18 3.92 2.27 5.93 3.34 4.19 2.56 7.99 5.5 11.4 9.06v2c0.605 0.264 1.21 0.528 1.83 0.8 2.28 1.26 3.29 2.34 4.84 4.4 3.6 4.37 7.89 7.4 12.5 10.6 0.806 0.572 1.61 1.14 2.44 1.73 3.1 2.19 6.21 4.35 9.37 6.46 0.66-0.33 1.32-0.66 2-1 0.0198-0.669 0.0396-1.34 0.0601-2.03 0.0965-3.09 0.206-6.19 0.315-9.28 0.0309-1.05 0.0619-2.11 0.0938-3.19 0.37-10 1.31-19.4 5.97-28.4 0.346-0.676 0.693-1.35 1.05-2.05 7.81-14.5 20.1-23.6 35.5-29 1.42-0.557 1.42-0.557 2.88-1.12 13.6-3.8 27.4-4.6 40.4 1.71 2.99 1.71 5.87 3.53 8.75 5.42 0.656 0.378 1.31 0.755 1.99 1.14 9.39 5.76 15.6 17 19.2 27.2 2.35 10.7 2.01 21.7 2 32.5 6.04e-5 0.915 1.21e-4 1.83 1.83e-4 2.77-0.0297 32.9-1.2 65.7-2.11 98.5-0.383 13.7-0.764 27.4-1.13 41.1-0.0443 1.65-0.0888 3.3-0.133 4.96-0.561 20.8-1.06 41.6-0.822 62.4 0.258 24 0.258 24-4.36 32.4-0.526 0.994-0.526 0.994-1.06 2.01-6.36 11.6-14.2 21.2-25.6 28.1-0.776 0.49-1.55 0.98-2.35 1.48-14.7 8.33-31.9 7.64-47.6 3.52-14.3-4.92-25.4-15.4-32.9-28.3-5.9-12.2-7.57-23.7-7.39-37.1 0.00938-1.44 0.0186-2.87 0.0276-4.31 0.386-40.4 0.386-40.4 3.28-43.3-0.0648-2.04-0.0648-2.04-0.375-4.38-0.0902-0.791-0.18-1.58-0.273-2.4-0.315-2.39-0.315-2.39-1.35-5.23-1.65-0.717-3.32-1.38-5-2-1.59-1.02-3.16-2.08-4.69-3.19-1.31-0.94-1.31-0.94-2.65-1.9-0.878-0.632-1.76-1.26-2.66-1.91-1.58-1.11-3.17-2.21-4.75-3.31-4.55-3.18-9.07-6.41-13.6-9.64-4.04-2.89-8.09-5.76-12.2-8.62-11-7.73-21.8-15.6-32.4-23.9-0.537-0.425-1.07-0.849-1.63-1.29-1.43-1.15-2.85-2.32-4.25-3.5-3.87-2.93-7.46-2.98-12.2-2.33-2.72 0.485-5.41 1.02-8.11 1.61 1.89 12.4 1.89 12.4 4.06 24.8 0.315 1.75 0.627 3.5 0.938 5.25 0.28 1.47 0.28 1.47 0.566 2.98 4.23 25.7 3.21 49.4-11.8 71.2-12.4 12.4-25.8 18.8-43.3 19.2-17.5-0.432-30.5-6.88-43.5-18.4-3.59 1.26-5.92 2.6-8.62 5.25-11.1 9.93-23.8 13.3-38.5 13-15.8-1.2-15.8-1.2-21.9-5.3-3.17 0.272-5.88 1.33-8.81 2.5-6.66 2.52-13.2 2.6-20.2 2.69-1.01 0.0197-1.01 0.0197-2.04 0.0398-4.64 0.00738-8.5-0.802-12.9-2.23-1.45-0.391-1.45-0.391-2.92-0.789-7.91-2.34-13.8-5.94-20.1-11.2-0.647-0.534-1.29-1.07-1.96-1.62-7.91-7.19-13.3-17.2-16-27.4h-4c-0.147 5.13 0.205 9.8 1.12 14.8 3.25 18.1 3.29 39.3-7.12 55.2-11.3 14.2-23.7 23.2-41.8 25.7-16.4 1.8-32.5-2.21-45.6-12.5-20.6-17.3-24.2-42.2-27.6-67.1-0.91-0.0887-0.91-0.0887-1.84-0.179-0.802-0.0827-1.6-0.165-2.43-0.25-0.793-0.0798-1.59-0.16-2.4-0.242-8.6-1.21-16.7-6.41-24.3-10.3v-2h-7c-0.34 0.835-0.34 0.835-0.688 1.69-1.68 2.95-3.85 5.03-6.31 7.31-0.641 0.634-1.28 1.27-1.94 1.92-10.3 9.83-22.3 13.5-36.3 13.4-0.925-0.00346-1.85-0.00693-2.8-0.0105-8.76-0.139-16.3-1.84-24.4-5.05-3.88-1.46-3.88-1.46-7.5-0.25-1.37 1.64-2.7 3.31-4 5-12.4 10.8-25.2 16.4-41.6 16.2-0.907 0.00773-1.81 0.0155-2.75 0.0234-5.28-0.0153-9.62-0.668-14.7-2.27-2.58-0.308-2.58-0.308-5-0.25-0.784-0.00516-1.57-0.0103-2.38-0.0156-2.79 0.2-2.79 0.2-6 1.26-12.9 3.57-28.6 0.88-40.3-5.48-5.24-3.35-10.1-7.24-14.5-11.7-1.9-1.89-3.56-3.51-5.88-4.86-3.16 0.0163-5.01 0.773-8 2v2c-2.39 0.956-4.78 1.91-7.17 2.86-1.72 0.693-3.44 1.4-5.16 2.12-30.5 12.7-68.7 21-100 8.96-14.2-6.38-25.3-18.8-31.2-33.1-6.01-16.9-5.95-34.9 0.00391-51.8 0.335-0.978 0.67-1.96 1.02-2.96 1.4-3.78 2.63-6.62 5.23-9.72 2.48-3.28 2.22-5.28 1.75-9.31-2.13-2.83-2.13-2.83-5.06-5.25-14.3-13.2-21.8-32.4-23.1-51.7-0.567-15.2 0.945-30 7.13-44 0.42-0.962 0.84-1.92 1.27-2.91 3.64-7.79 8.38-14.4 13.7-21.1 0.464-0.619 0.928-1.24 1.41-1.88 2.71-3.52 5.86-5.99 9.43-8.56 2.23-1.61 4.38-3.29 6.54-5 4.75-3.71 9.67-7.14 14.6-10.6 5.21-3.62 10.4-7.26 15.5-11 4.16-3.04 8.35-6.02 12.6-8.96 2.3-1.61 4.59-3.23 6.87-4.87 27.6-19.7 27.6-19.7 37.1-20.4 6.87-0.507 6.87-0.507 12.5-4.13 2.23-2.82 4.32-5.72 6.41-8.64 9.74-10.3 22.1-14 35.9-14.4 10.3-0.123 19.3 0.998 29.1 4.4v2c0.696 0.0838 1.39 0.168 2.11 0.254 11 2.85 21 13.6 26.9 22.8 6.89 12 8.45 23.4 8.69 37.1 0.0333 1.34 0.0678 2.68 0.104 4.03 0.0816 3.24 0.151 6.48 0.209 9.72 0.894 0.134 1.79 0.268 2.71 0.407 1.17 0.178 2.34 0.355 3.55 0.539 1.16 0.175 2.32 0.351 3.52 0.532 5.07 0.824 9.3 1.98 13.7 4.59 5.25 2.65 10.2 2.31 16 2.06 10-0.354 18.1 0.095 27 5.06 1.1 0.612 2.2 1.22 3.34 1.86 3.87 2.35 7.46 4.96 11 7.77 2.19 1.43 2.19 1.43 4.86 0.984 3.06-1.03 4.89-2.72 7.36-4.8 15.3-11.3 35.1-16.6 54-15 0.33 0.33 0.66 0.66 1 1 2.67 0.141 5.32 0.0425 8 0 0.159-0.545 0.317-1.09 0.48-1.65 3.12-10.1 7.19-16.8 15.5-23.3 0.679-0.598 1.36-1.2 2.06-1.81 11.6-9.91 25.1-11.8 39.9-11.2 9.16 0.811 16.3 3.05 24.4 7.25 6.94 3.42 13.2 4.75 20.8 5.44 6.49 0.65 12.5 1.37 18.8 3.31 1.64 0.256 3.29 0.473 4.94 0.625 1.35 0.125 2.71 0.25 4.06 0.375-0.0686-0.627-0.137-1.25-0.208-1.9-0.791-7.83-1.04-15.6-1.1-23.5-0.029-1.22-0.058-2.45-0.0879-3.71-0.0998-14.5 4.44-30.4 14.6-41.2 13.1-12.3 27.4-19.9 45.7-20 2.38 0.0766 4.75 0.178 7.12 0.312 0.855 0.0322 1.71 0.0645 2.59 0.0977 13 0.89 24.9 8.66 33.4 18.1 2.06 2.41 4.01 4.82 5.84 7.41 2.64 2.94 5.12 4.06 8.72 5.65 12.8 6 21.9 15.7 30.4 26.8 0.66-0.33 1.32-0.66 2-1 0.371-1.22 0.742-2.43 1.12-3.69 2.16-6.98 6.14-13.1 9.88-19.3h2c0.3-1.03 0.3-1.03 0.605-2.08 1.9-3.97 4.59-6.61 7.71-9.67 0.627-0.618 1.25-1.24 1.9-1.87 26-25.1 62.4-32.1 93.9-12.4zm-632 42.3c-0.797 0.418-1.59 0.835-2.41 1.27-2.13 1.33-2.13 1.33-2.73 3.66-0.0748 0.603-0.15 1.21-0.227 1.83 0.557 0.303 1.11 0.606 1.69 0.918 4.67 2.57 9.22 5.24 13.7 8.16 1.61 1.08 1.61 1.08 3.63 0.918-0.616-2.79-1.24-5.58-1.88-8.38-0.261-1.19-0.261-1.19-0.527-2.41-0.174-0.761-0.348-1.52-0.527-2.3-0.157-0.702-0.314-1.4-0.476-2.13-0.521-2.01-0.521-2.01-2.59-3.79-3.35 0-4.72 0.678-7.62 2.25zm41.6-0.25c-2.51 2.63-3.76 5.51-5.04 8.88-0.527 1.38-0.527 1.38-1.06 2.79-0.356 0.955-0.713 1.91-1.08 2.89-0.368 0.958-0.736 1.92-1.12 2.9-2.04 5.13-2.04 5.13-2.7 10.5h34c0-7.96-2.63-14.3-8-20.2-6.63-5.93-6.63-5.93-15-7.77zm441 0c-2.39 1.92-2.39 1.92-2.01 5.34 0.0973 1.39 0.206 2.77 0.324 4.16 0.0483 0.67 0.0967 1.34 0.146 2.03 0.412 5.5 0.992 11 1.54 16.5h22c0-9.5-3.4-16.2-10-23-3.9-3.07-6.98-4.77-12-5z" fill="#FCFDFF"/>
<path transform="translate(754,811)" d="m0 0c3.21 2.62 6.19 5.45 9.18 8.32 0.932 0.886 1.86 1.77 2.82 2.68 1.35 1.37 1.35 1.37 2.73 2.77 4.44 3.02 8.08 3.06 13.3 3.29 19 1.34 36.6 8.35 49.6 22.8 1.13 1.37 2.26 2.74 3.38 4.12 0.575 0.654 1.15 1.31 1.74 1.98 5.59 6.62 8.84 14.1 12.3 22 1.95-0.195 1.95-0.195 4-1 0.708-1.31 1.37-2.65 2-4 15.3-14.4 31-17.6 51.2-17.2 5.2 0.387 9.28 1.64 13.8 4.21 1.08 0.612 1.08 0.612 2.19 1.24 4.13 2.36 8.22 4.79 12.3 7.3 0.684 0.425 1.37 0.85 2.07 1.29 0.488 0.387 0.975 0.774 1.48 1.17v2c0.578 0.235 1.15 0.469 1.75 0.711 7.8 4.47 12.2 14.2 15.4 22.2 2.11 7.96 1.98 16.2 2.02 24.4 0.0099 1.2 0.0198 2.4 0.03 3.64 0.026 3.27 0.048 6.53 0.068 9.8 0.022 3.42 0.0493 6.85 0.0761 10.3 0.0497 6.47 0.0947 12.9 0.138 19.4 0.0495 7.37 0.104 14.7 0.16 22.1 0.114 15.2 0.22 30.3 0.323 45.5 0.661-0.0866 1.32-0.173 2-0.263 3.02-0.396 6.05-0.791 9.07-1.19 1.04-0.136 2.08-0.273 3.15-0.413 5.18-0.677 10.4-1.34 15.6-1.95 9.38-1.11 18.1-2.5 27.2-5.34 9.61-2.68 25.9-4.44 35.1 0.148 0.731 0.3 1.46 0.601 2.21 0.91 15.5 6.57 27.4 16.9 34.8 32.1 6.57 16.3 8.04 37.4 1.22 53.9-6.41 14.2-16.9 27.4-31.8 33.3-8.47 2.96-16.7 3-25.5 2.78-13.2-0.166-25.8 1.08-38.9 3.06-1.39 0.194-2.78 0.386-4.17 0.574-5.87 0.804-5.87 0.804-11.6 2.38-3.45 1.1-6.78 1.73-10.4 2.3-0.653 0.106-1.31 0.212-1.98 0.321-2.06 0.334-4.13 0.662-6.19 0.988-2.08 0.331-4.16 0.663-6.24 0.999-1.88 0.303-3.75 0.601-5.63 0.898-2.81 0.391-2.81 0.391-4.89 1.54-28.1 4.17-55.8 6.64-80.2-10.2-2.38-1.84-4.67-3.62-6.77-5.77v-2c-0.835-0.294-0.835-0.294-1.69-0.594-3.27-1.99-5.16-4.82-7.31-7.91-0.443-0.633-0.886-1.27-1.34-1.92-6.31-9.25-9.66-19.2-9.66-30.6-5.87-0.238-11.1 0.657-16.9 1.88-0.847 0.174-1.69 0.348-2.57 0.527-6.88 1.42-13.8 2.87-20.6 4.6-0.147 1.2-0.147 1.2-0.297 2.42-1.9 14-5.59 27-16.7 36.6h-2c-0.33 0.99-0.66 1.98-1 3-6.33 4.95-13.4 8.45-21 11-1.22 0.412-2.43 0.825-3.69 1.25-15.9 3.51-32.1-0.85-46.2-8.23-4.07-2.62-7.15-5.71-10.3-9.39-1.69-1.83-1.69-1.83-3.73-1.61-2.91 1.34-5.51 3-8.2 4.73-5.77 3.65-11.6 6.64-17.9 9.25-0.65 0.285-1.3 0.57-1.97 0.863-1.99 0.822-3.98 1.5-6.03 2.14-0.888 0.28-1.78 0.559-2.69 0.848-24.6 6.49-51.7 2.31-73.6-10.1-4.91-3.16-9.28-6.92-13.7-10.7-0.699-0.553-1.4-1.11-2.12-1.68-10.2-8.28-17.4-20.1-23.9-31.3-0.607-1.01-1.21-2.03-1.84-3.07-3.43-5.99-6.12-12-8.35-18.6-0.226-0.649-0.451-1.3-0.684-1.97-5.96-18.4-7.45-37.5-9.07-56.7-0.245-2.87-0.501-5.74-0.757-8.6-1.37-15.3-2.61-30.6-3.65-45.9-0.458-6.7-1-13.4-1.65-20.1-0.0859-0.888-0.172-1.78-0.26-2.69-0.412-4.24-0.851-8.47-1.31-12.7-1.07-10.2-1.65-20.3-1.74-30.6-0.0176-1.09-0.0351-2.18-0.0532-3.3 0.00489-6.28 0.666-11.2 3.37-16.8 0.498-1.15 0.995-2.3 1.51-3.49 7.13-14.9 17.3-25 33.1-30.7 12.5-3.98 26.8-4.36 39.4-0.777 1.13 0.292 1.13 0.292 2.29 0.59 6.03 1.75 10.6 4.78 15.7 8.41 0.893 0.534 0.893 0.534 1.8 1.08 9.94 6.14 15.4 17.3 19.2 27.9 3.45-3.16 5.59-5.97 7.86-10.1 5.82-9.63 15.4-15.8 25.1-20.9h2c0.0142-0.571 0.0284-1.14 0.043-1.73 0.8-13.6 7.15-27.1 17.1-36.5 22.3-18.5 50.8-24.9 75.9-7.81zm-243 82 1 2zm0 23 1 3z" fill="#FCFDFF"/>
<path transform="translate(727,852)" d="m0 0c4.09 3.41 5.01 6.03 5.48 11.2 0.208 3.07 0.31 6.14 0.375 9.22-0.271 3.38-0.271 3.38 1.14 4.57 1.48 0.0723 2.97 0.0753 4.45 0.05 0.949-0.013 1.9-0.026 2.87-0.0394 1.04-0.0177 2.07-0.0354 3.14-0.0537 2.18-0.0224 4.37-0.0439 6.55-0.0645 3.45-0.0369 6.9-0.0797 10.3-0.139 3.32-0.0549 6.65-0.0837 9.97-0.109 1.02-0.0238 2.03-0.0476 3.08-0.0721 7.74-0.028 15 1.26 20.9 6.51 8.36 12 12.2 23.2 12 38-0.0109 1.1-0.0218 2.19-0.033 3.32-0.58 29.8-13.5 56.3-28.3 81.6-0.382 0.65-0.764 1.3-1.16 1.97-4.34 7.37-8.8 14.6-13.5 21.8-1.25 2.16-1.77 3.87-2.31 6.27 16.5-0.524 33-1.84 49.1-5.19 6.09-1.21 12-2.08 18.2-2.39 0.775-0.0404 1.55-0.0807 2.35-0.122 7.97-0.382 15.9-0.451 23.9-0.43 2.4 0.00542 4.8-2.52e-5 7.2-0.00635 1.57 6.6e-4 3.14 0.00194 4.71 0.00391 1.04-0.00304 1.04-0.00304 2.11-0.00613 4.09 0.0189 8.12 0.263 12.2 0.647 1.47 0.137 1.47 0.137 2.97 0.278 0.743 0.0707 1.49 0.141 2.25 0.214-0.00277-0.593-0.00553-1.19-0.00838-1.8-0.0663-14.4-0.116-28.9-0.147-43.3-0.0155-6.98-0.0365-14-0.0709-20.9-0.0331-6.74-0.0505-13.5-0.0583-20.2-0.00555-2.57-0.0164-5.14-0.0326-7.72-0.0217-3.6-0.0248-7.2-0.0234-10.8-0.0108-1.07-0.0216-2.13-0.0327-3.23 0.0383-9.12 0.0383-9.12 3.37-13 3.18-2.12 5.16-3 9-3 4.27 1.42 7.92 3.85 10 8 0.0954 1.77 0.126 3.53 0.127 5.3 0.00282 1.13 0.00564 2.25 0.00854 3.41-0.00304 1.86-0.00304 1.86-0.00613 3.76 0.00263 1.96 0.00263 1.96 0.00531 3.95 0.00458 3.59 0.00278 7.19-3.79e-4 10.8-0.00254 3.79-1.81e-4 7.58 0.00139 11.4 0.00182 6.4-5.84e-4 12.8-0.00534 19.2-0.00537 7.31-0.00373 14.6 0.00183 21.9 0.00461 6.32 0.00514 12.6 0.00256 19-0.00153 3.75-0.00185 7.51 0.00154 11.3 0.0159 20.4-0.377 40.7-1.14 61.1 13.7 0.264 26.9-0.63 40.5-2.31 1.94-0.232 3.88-0.463 5.83-0.693 3.82-0.452 7.64-0.91 11.5-1.37 6.82-0.82 13.6-1.57 20.5-2.31 2.09-0.235 4.19-0.471 6.28-0.707 3.37-0.379 6.75-0.733 10.1-1.05 6.8-0.686 12.9-1.92 19.3-4.24 5.66-2.01 9.24-3.23 15-1.31 4.68 3.77 6.72 6.72 7.44 12.6-0.0603 3.76-1.23 6.34-2.96 9.65-0.46 0.889-0.92 1.78-1.39 2.69-0.356 0.671-0.712 1.34-1.08 2.03-0.74-0.0314-1.48-0.0628-2.24-0.0952-22.9-0.826-44.3 1.95-66.8 6.1-0.746 0.137-1.49 0.274-2.26 0.416-6.29 1.16-12.6 2.34-18.9 3.53-14.1 2.67-27.8 5.26-42.1 5.49-0.858 0.0224-1.72 0.0448-2.6 0.0679-7.33-0.0275-12.1-2.57-18.1-6.38-5.49-8.58-1.45-25.1-0.5-35 0.145-1.57 0.29-3.15 0.434-4.72 0.349-3.8 0.705-7.6 1.07-11.4-0.608 0.0867-1.22 0.173-1.84 0.263-1.2 0.156-1.2 0.156-2.43 0.315-0.794 0.107-1.59 0.215-2.41 0.325-2.96 0.123-5.18-0.859-7.88-2-24.5-9.07-52.7-3.13-77.1 2.66-5.7 1.34-11.4 2.36-17.2 3.12-1.44 0.191-1.44 0.191-2.92 0.386-10.7 1.29-21.4 1.22-32.2 0.927-0.122 7.1 0.176 14 1 21.1 2.67 22.9 2.67 22.9-2 29.9-4.04 0.707-7.95 0.581-12 0-6.86-5.39-6.93-17-8-25-0.433-4.5-0.727-9-1-13.5-0.121-1.89-0.121-1.89-0.244-3.82-0.214-3.38-0.423-6.76-0.628-10.1-0.128-2.1-0.259-4.21-0.391-6.31-1.25-20-2.34-39.9-3.14-59.9-0.0343-0.839-0.0687-1.68-0.104-2.54-0.0614-1.52-0.12-3.04-0.176-4.55-0.149-3.71-0.419-7.37-0.816-11.1-0.566-5.42-0.748-10.8-0.895-16.3-0.0688-2.12-0.139-4.25-0.209-6.37-0.107-3.29-0.208-6.58-0.295-9.86-0.302-11.2-0.755-21.8-3.71-32.6-2.12-8.13-1.86-16.2-1.71-24.6 0.0115-1.58 0.0213-3.16 0.0293-4.74 0.171-21.8 0.171-21.8 4.28-26.8 4.28-3.78 8.77-3.76 14-2z" fill="#4F1BC4"/>
<path transform="translate(1056 434)" d="m0 0c6.14 2.73 12.3 6.91 14.8 13.4 0.227 3.35 0.176 6.65 0 10-1 0.11-2 0.219-3.04 0.332-9.85 1.05-9.85 1.05-19 4.67-0.737 0.411-1.47 0.822-2.23 1.25-9.12 5.5-11.9 12.3-15 22.2-1.7 7.57-1.99 15.2-1.98 23-9.67e-4 1.32-9.67e-4 1.32-0.00195 2.67 0.0669 8.8 0.723 17.5 1.48 26.3 0.609 7.22 0.829 14.3 0.712 21.6 8.95 0.413 16.9-0.737 25.6-2.81 1.15-0.261 2.3-0.522 3.48-0.791 5.08-1.17 10.1-2.42 15.1-3.98 5.96-1.85 12.1-2.74 18.2-3.61 5.75-0.964 9.03-2.36 13-6.66 1.56-1.14 1.56-1.14 3.57-0.934 1.99 0.796 1.99 0.796 4.86 2.73 2.98 2.18 2.98 2.18 6.25 3 3.55 1.31 4.84 2.93 6.88 6.06v2c0.562 0.251 1.12 0.503 1.7 0.762 2.65 1.43 4.74 3.12 7.05 5.05 1.45 1.2 1.45 1.2 2.93 2.43 0.794 0.661 0.794 0.661 1.6 1.33 8.7 7.21 17.5 14.3 26.5 21.1 3.9 2.9 7.76 5.85 11.6 8.81 0.727 0.556 1.45 1.11 2.2 1.68 3.32 2.54 6.62 5.08 9.91 7.65 11.6 9.09 23.9 16.8 36.6 24.2 1.53 0.898 3.05 1.84 4.55 2.78 2.14 1.21 3.88 1.73 6.25 2.27-0.0103-0.988-0.0103-0.988-0.0208-2-0.187-21.2 0.366-42.3 1.14-63.5 0.168-4.62 0.317-9.24 0.463-13.9 0.117-3.6 0.246-7.2 0.379-10.8 0.0608-1.71 0.117-3.41 0.168-5.12 0.0725-2.36 0.162-4.73 0.257-7.09 0.0259-1.04 0.0259-1.04 0.0523-2.09 0.264-5.82 1.77-9.91 6.06-13.9 4.57-3.08 8.18-2.86 13.5-2.69 2.03 2.03 1.16 6.27 1.17 9.06 0.0041 0.861 0.0082 1.72 0.0124 2.61 0.00981 2.92 0.00948 5.85 0.00711 8.77 3.93e-4 1.02 7.86e-4 2.04 0.00119 3.09-0.00864 19.1-0.509 38.2-1.13 57.3-0.0343 1.06-0.0343 1.06-0.0692 2.15-0.116 3.58-0.232 7.17-0.348 10.7-0.0341 1.05-0.0341 1.05-0.0689 2.12-0.0457 1.41-0.0915 2.82-0.137 4.22-0.407 12.5-0.745 25-1 37.6-0.0198 0.918-0.0395 1.84-0.0599 2.78-0.265 12.5-0.405 25-0.483 37.5-0.0399 6.35-0.0922 12.7-0.146 19-0.0444 5.42-0.0704 10.8-0.0832 16.3-0.0121 3.4-0.0405 6.79-0.0731 10.2-0.0119 1.6-0.0168 3.19-0.0145 4.79 0.00233 2.21-0.0198 4.41-0.0477 6.62-0.00587 1.24-0.0117 2.48-0.0178 3.76-0.802 5.31-3.29 8.36-7.32 11.8-3.83 1.95-5.95 2.32-10.2 1.62-4.19-3.16-5.79-5.97-7-11-0.148-3.78 0.0454-7.53 0.25-11.3 0.0508-1.11 0.102-2.22 0.154-3.36 0.317-6.43 0.794-12.8 1.39-19.2 0.981-10.7 1.53-21.5 1.67-32.2 0.0242-1.55 0.0585-3.09 0.104-4.64 0.336-11.4 0.336-11.4-4.82-21.4-2.73-2.8-5.5-5.31-8.62-7.67-0.648-0.503-1.3-1.01-1.96-1.52-6.53-5-13.3-9.65-20.1-14.2-3.46-2.33-6.91-4.7-10.4-7.06-0.674-0.462-1.35-0.925-2.04-1.4-4.62-3.18-9.18-6.45-13.7-9.77-2.24-1.63-4.49-3.22-6.77-4.8-13.7-9.51-26.8-19.6-39.6-30.2-1.87-1.54-3.76-3.07-5.66-4.58-1.52-1.22-1.52-1.22-3.08-2.46-0.922-0.731-1.84-1.46-2.79-2.21-0.666-0.61-1.33-1.22-2.02-1.85v-2c-20.2 0.776-40.3 5.7-60 10-0.855 0.186-1.71 0.372-2.59 0.563-2.33 0.511-4.65 1.03-6.97 1.56-1.28 0.291-2.56 0.583-3.88 0.883-6.69 1.67-6.69 1.67-12 5.77-5.43 20.6 3.58 47.3 7.93 67.6 1.22 5.86 2.07 11.7 2.67 17.6 0.0947 0.833 0.189 1.67 0.287 2.53 0.694 6.81 1.34 13.7-2.54 19.5-3.06 1.95-3.66 2.14-7.06 1.81-3.88-0.938-3.88-0.938-6.88-2.94v-2c-0.99-0.33-1.98-0.66-3-1-4.56-6.64-5-15.6-5.96-23.3-0.575-4.63-1.32-9.04-2.52-13.5-1.09-4.47-1.75-9.02-2.46-13.6-0.171-1.1-0.342-2.2-0.519-3.33-2.18-14.7-3.35-29.5-4.54-44.2-3.53 0-5.72 0.942-9 2.25-4.34 1.71-8.68 3.4-13.1 5-0.857 0.315-1.71 0.629-2.6 0.953-6.09 2.07-12.1 2.95-18.2 0.484-4.11-2.18-5.72-3.28-7.19-7.69-0.458-6.42-0.458-6.42 1.28-8.63 1.83-1.46 3.27-2.13 5.49-2.84 0.736-0.24 1.47-0.481 2.23-0.729 1.17-0.368 1.17-0.368 2.37-0.744 0.81-0.262 1.62-0.523 2.45-0.793 2.39-0.767 4.78-1.52 7.17-2.27 1.16-0.364 2.32-0.727 3.52-1.1 1.99-0.614 3.98-1.22 5.97-1.83 3.98-1.21 7.95-2.45 11.9-3.69 0.734-0.23 1.47-0.459 2.23-0.696 1.79-0.561 3.58-1.12 5.38-1.68-0.00444-0.902-0.00888-1.8-0.0135-2.73-0.0404-8.57-0.0707-17.1-0.0902-25.7-0.0104-4.41-0.0244-8.81-0.0473-13.2-0.022-4.27-0.0337-8.53-0.0389-12.8-0.00364-1.61-0.0108-3.23-0.0217-4.84-0.158-24.3 1.86-51.1 19.7-69.5 9.38-8.2 17.7-11.8 29.7-7.57z" fill="#4F1BC4"/>
<path transform="translate(739 508)" d="m0 0c7.08 0.473 11.7 1.98 16.7 7.19 0.619 1.11 1.24 2.23 1.88 3.38 1.82 2.83 1.82 2.83 4.45 3.04 3.31 0.0337 6.41-0.0806 9.62-0.914 15.7-3.77 35 2.64 49.1 9.5 0.963 0.449 1.93 0.897 2.92 1.36 15.9 8.48 29.4 23.7 35.6 40.6 5.04 18.9 1.38 38.4-8.09 55-3.18 5.29-7.07 9.66-11.5 14-0.549 0.607-1.1 1.21-1.66 1.84-14.8 16.1-36.8 24-57.9 26.8-2.39 0.14-2.39 0.14-3.45 1.39-0.546 6.73 0.339 13.1 1.71 19.7 0.263 1.32 0.263 1.32 0.531 2.66 0.555 2.77 1.12 5.54 1.69 8.3 0.563 2.77 1.12 5.55 1.68 8.33 0.346 1.72 0.695 3.43 1.05 5.15 1.6 7.86 2.55 15.6 2.71 23.7 0.0561 1.11 0.0561 1.11 0.113 2.25 0.062 3.84-0.137 5.61-2.73 8.52-3.66 1.97-5.62 1.82-9.61 1.17-4.51-1.43-6.64-4.91-9.15-8.68-0.472-2.27-0.853-4.55-1.18-6.84-0.1-0.677-0.2-1.35-0.303-2.05-0.324-2.2-0.637-4.4-0.951-6.6-0.222-1.52-0.444-3.03-0.667-4.55-0.439-2.98-0.874-5.96-1.31-8.94-0.703-4.82-1.44-9.64-2.21-14.4-0.15-0.943-0.15-0.943-0.303-1.9-0.569-3.57-1.15-7.13-1.76-10.7-2.13-12.5-3.97-25.1-5.77-37.7-1.79-12.7-1.79-12.7-4.15-25.3-0.662-3.34-0.995-6.7-1.34-10.1-0.627-6.07-1.32-12.1-2.06-18.2-1.75-14.3-3.31-28.6-4.79-42.9-0.403-3.87-0.813-7.74-1.22-11.6-0.26-2.5-0.52-4.99-0.779-7.49-0.122-1.14-0.244-2.28-0.369-3.45-1.46-14.3-1.46-14.3-0.838-19.3 2-2 2-2 4.32-2.19z" fill="#4F1BC4"/>
<path transform="translate(524 541)" d="m0 0c1.48 0.0133 2.95 0.0372 4.43 0.0703 0.754 0.00902 1.51 0.018 2.29 0.0273 1.86 0.0236 3.73 0.0595 5.59 0.0977 2.74 6.53 4.02 12.9 5.12 19.9 0.333 2.06 0.669 4.12 1.01 6.18 0.143 0.902 0.286 1.8 0.434 2.73 0.337 2.24 0.337 2.24 1.43 4.21 0.447-0.724 0.895-1.45 1.36-2.2 6.05-9.67 12.3-18.8 23.8-22.5 5.06-0.878 8.54-0.887 12.8 2.05 1.78 1.34 1.78 1.34 3.06 2.62v2c0.548 0.205 1.1 0.41 1.66 0.621 15.4 9.06 26.1 35.2 31.3 51.4v3c1.65 0.66 3.3 1.32 5 2 0.0825-1.03 0.165-2.06 0.25-3.12 2.26-17.1 9.88-35.5 20.8-48.9 0.741-1.05 0.741-1.05 1.5-2.12 5.34-7.04 14.8-12.3 23.5-13.9 6.27-0.707 10.9 0.0393 16 4 27.3 21.9 36.9 72.5 41 105 0.337 5.09 0.512 9.4-2 14-2.39 2.39-3.04 2.3-6.31 2.31-4.1-0.138-6.64-0.352-9.69-3.31-3.59-6.41-4.92-13.6-6.29-20.7-0.693-3.21-1.65-6.19-2.71-9.3-0.504-1.82-1.01-3.63-1.5-5.45-6.87-33.3-6.87-33.3-24.7-60.6-3.09-1.6-5.58-2.3-8.95-1.23-11.3 6.93-15.8 21.1-18.8 33.3-0.175 0.642-0.35 1.28-0.531 1.95-4.12 15.2-4.53 30.2-4.45 45.8 0.00548 1.12 0.011 2.24 0.0166 3.4 0.0172 2.16 0.0459 4.32 0.0879 6.49 0.0663 5.49 0.00315 10.2-2.12 15.3-0.99 0.33-1.98 0.66-3 1-0.33 0.99-0.66 1.98-1 3-3.46 2.53-6.85 2.36-11 2-2.75-1-2.75-1-5-3-2.29-5.48-3.88-11-5.31-16.8-1.78-6.93-3.66-13.8-5.69-20.7-0.337-1.17-0.337-1.17-0.681-2.36-5.62-18.8-15.2-47.9-30.3-61.2-3.17-1.25-4.7-1.08-8-0.188-6.41 4.67-8.25 12-9.57 19.5-0.847 7.21-0.725 14.5-0.732 21.7-0.0037 3.03-0.0205 6.06-0.0408 9.09-0.0551 8.61-0.0862 17.2-0.111 25.8-0.0159 5.28-0.046 10.6-0.0848 15.9-0.0117 2.01-0.0176 4.02-0.0177 6.03-1.92e-4 2.8-0.0184 5.6-0.0406 8.4 0.00458 0.829 0.00915 1.66 0.0139 2.51-0.042 3.33-0.174 5.77-1.78 8.72-2.31 2.11-3.92 2.06-7.01 2.05-0.936 0.0219-1.87 0.0438-2.84 0.0664-3.94-0.888-5.26-2.51-7.79-5.63-0.974-2.8-1.32-5.6-1.67-8.53-0.118-0.85-0.236-1.7-0.357-2.58-0.386-2.82-0.742-5.64-1.1-8.47-0.268-2-0.538-4-0.81-6-0.715-5.3-1.4-10.6-2.09-15.9-0.678-5.22-1.38-10.4-2.08-15.7-0.827-6.19-1.65-12.4-2.46-18.6-1.33-10.1-2.69-20.2-4.15-30.3-0.139-0.96-0.277-1.92-0.42-2.91-0.653-4.51-1.31-9.02-1.98-13.5-3.06-20.8-3.06-20.8-2.89-26.6 2-2 2-2 5.7-2.2z" fill="#4F1BC4"/>
<path transform="translate(570 897)" d="m0 0c1.04 0.00773 1.04 0.00773 2.1 0.0156 5.12 0.08 5.12 0.08 6.27 1.23 0.377 2.69 0.683 5.36 0.945 8.07 0.129 1.32 0.129 1.32 0.261 2.66 1.14 12.3 1.74 24.6 2.43 36.9 1.21 21.7 2.52 43.4 4.43 65 0.114 1.33 0.114 1.33 0.23 2.69 3.3 38.4 3.3 38.4 23.7 69.7 7.84 5.37 14.6 6.71 24 6 9.53-1.98 16.2-8.4 21.4-16.3 13-21.9 16.6-48.8 19.6-73.7 0.0957-0.761 0.191-1.52 0.29-2.31 0.85-7.43 0.942-14.8 0.96-22.3 2e-3 -0.675 0.00401-1.35 0.00607-2.04 0.00875-12.1-1.14-23.9-2.91-35.9-0.722-5.12-1.1-10.3-1.34-15.4-0.0529-1-0.106-2.01-0.16-3.04-0.274-9.03-0.274-9.03 3.16-13 3.4-2.98 6.51-4.15 11-4.38 1.02-0.0735 1.02-0.0735 2.06-0.148 1.94 0.523 1.94 0.523 3.62 2.72 6.87 14.6 4.53 36 4.51 51.9-4.08e-4 1.36-4.08e-4 1.36-8.24e-4 2.75-0.0622 45.5-0.703 104-33.7 140-1.24 1.14-1.24 1.14-2.5 2.31-0.522 0.492-1.04 0.985-1.58 1.49-8.82 8-19.6 11.3-31.5 11.9-16.2-1.54-28.5-7.85-38.9-20.4-12.5-16.4-16.6-34.6-18.4-54.8-0.12-1.34-0.241-2.68-0.362-4.01-0.322-3.57-0.637-7.13-0.95-10.7-0.262-2.97-0.528-5.94-0.794-8.91-2.04-22.8-4.03-45.6-5.93-68.5-0.418-5.03-0.847-10.1-1.29-15.1-2.49-29-2.49-29-0.27-32.9 3.05-1.81 6.15-1.52 9.58-1.41z" fill="#4F1BC4"/>
<path transform="translate(428,486)" d="m0 0c3.72 1.69 5.83 3.57 8 7 0.665 3.41 0.57 6.58 0 10-1.88 2.69-1.88 2.69-5 5-0.705 0.53-1.41 1.06-2.14 1.61-8.16 5.95-16.9 11-26 15.4-12.1 6.01-23.6 13.2-33.9 21.9-0.694 0.559-1.39 1.12-2.1 1.7-0.626 0.513-1.25 1.03-1.9 1.55-0.536 0.438-1.07 0.877-1.62 1.33-1.6 1.66-2.44 3.33-3.38 5.42h-2c-3.93 10.4-3.93 10.4-3 21.2 4.24 5.83 8.62 7.8 15.4 9.65 1.24 0.345 2.49 0.69 3.77 1.04 1.26 0.347 2.53 0.695 3.83 1.05 2.29 0.652 4.57 1.31 6.86 1.96 14.3 4.1 14.3 4.1 28.6 8.12 1.43 0.397 2.86 0.796 4.28 1.2 3.62 1.01 7.23 1.96 10.9 2.81 12.7 3.07 23.6 7.78 31.3 19 4.23 7.74 4.15 16.3 3.05 24.9-2.46 8.18-7.64 15.3-14 21h-2c-0.33 0.99-0.66 1.98-1 3-10.4 8.19-22.1 13.2-34.4 17.7-2.03 0.745-4.06 1.52-6.04 2.38-3.84 1.41-7.78 2.19-11.8 3.02-0.854 0.176-1.71 0.353-2.59 0.534-5.73 1.16-11.4 2.18-17.2 2.4-1.14 0.0516-2.28 0.103-3.46 0.156-6.61 0.166-11.8 0.247-17.5-3.16-3.37-3.37-3.2-7.12-3.31-11.8 0.0464-5.42 0.771-9.99 4.31-14.2 2.46-1.51 3.58-2.02 6.5-1.88 2.5 0.875 2.5 0.875 3.95 2.93 4.22 3.21 8.75 2.22 13.9 1.88 1.62-0.0914 1.62-0.0914 3.28-0.185 17.7-1.14 40.3-4.51 52.9-18.3 4.78-6.21 5.38-12.9 4.5-20.5-1.87-4.18-4.49-5.41-8.56-7.06-11.1-3.64-22.7-5.5-34.1-7.39-19.7-3.26-41.8-7.46-55.3-23.6-7.07-11.3-9.23-24.2-6.25-37.3 0.942-2.66 2-5.16 3.25-7.69 0.289-0.652 0.577-1.3 0.875-1.98 6.3-12.8 24.1-21.7 35.6-29.3 4.84-3.2 9.43-6.65 14-10.2 3.67-2.87 7.42-5.52 11.3-8.05 2.43-1.59 4.8-3.25 7.18-4.93 0.831-0.579 1.66-1.16 2.52-1.75 1.64-1.15 3.26-2.33 4.87-3.52 4.63-3.34 7.69-5.25 13.6-4.22z" fill="#4F1BC4"/>
<path transform="translate(783 543)" d="m0 0c1.55 0.00737 1.55 0.00737 3.12 0.0149 7.29 0.112 13.9 0.732 20.8 3.3 1.02 0.375 2.04 0.75 3.1 1.14 12.5 4.9 23.5 11.8 29.2 24.5 2.04 5.46 2.35 10.5 2.23 16.3-0.0128 0.968-0.0256 1.94-0.0388 2.93-0.199 7.01-1 12.9-4.46 19.1-0.498 0.905-0.995 1.81-1.51 2.74-4.06 6.81-9.03 12.5-14.5 18.3-0.575 0.638-1.15 1.28-1.74 1.93-8.71 9.35-19.2 13.6-31.3 17.1-0.681 0.202-1.36 0.405-2.06 0.613-2.68 0.534-5.27 0.635-8 0.699-1.04 0.0374-2.09 0.0748-3.16 0.113-2.78-0.426-2.78-0.426-4.35-1.86-2.15-3.86-2.52-7.78-3.12-12.1-0.141-0.952-0.281-1.9-0.426-2.88-0.455-3.1-0.892-6.21-1.33-9.32-0.307-2.14-0.615-4.27-0.924-6.41-0.901-6.28-1.77-12.6-2.64-18.8-0.121-0.879-0.243-1.76-0.368-2.66-0.712-5.17-1.4-10.3-2.07-15.5-0.164-1.24-0.327-2.48-0.496-3.76-2.66-21.4-2.66-21.4 1.93-29 6.36-6.36 13.6-6.36 22.1-6.31z" fill="#FCFDFF"/>
<path transform="translate(879 436)" d="m0 0c1.06-0.00773 2.13-0.0155 3.22-0.0234 0.896 0.131 1.79 0.263 2.71 0.398 2.26 3.39 2.34 4.88 2.56 8.88 0.0735 1.21 0.147 2.43 0.223 3.68 0.0717 1.33 0.143 2.67 0.215 4 0.0812 1.39 0.163 2.78 0.246 4.17 0.217 3.68 0.424 7.36 0.629 11 0.323 5.78 0.663 11.6 1 17.3 0.125 2.15 0.249 4.3 0.373 6.45 0.514 8.86 1.13 17.7 1.81 26.6 0.627 8.06 1.1 16.1 1.38 24.2 0.574 16.1 1.99 32.2 3.29 48.2 0.339 4.2 0.673 8.4 1.01 12.6 0.571 7.17 1.16 14.3 1.75 21.5 0.368 4.49 0.7 8.99 1.01 13.5 0.0767 1.05 0.153 2.1 0.232 3.18 0.134 1.85 0.257 3.7 0.364 5.55 0.417 5.48 1.85 9.81 4.02 14.9 1.13 2.89 1.41 5.42 1.42 8.51 0.00773 1.6 0.00773 1.6 0.0156 3.24-0.0155 1.08-0.0309 2.16-0.0469 3.28 0.0155 1.1 0.0309 2.19 0.0469 3.32-0.0376 7.75-1.04 11.4-6.55 16.9-4.46 0.967-6.96 1.33-11.3-0.0625-3.64-2.62-5.21-5.51-6.08-9.95-0.294-2.38-0.5-4.76-0.679-7.15-0.0773-0.913-0.155-1.83-0.234-2.77-0.248-3.02-0.473-6.05-0.691-9.07-0.112-1.55-0.112-1.55-0.225-3.13-0.57-8.09-1.08-16.2-1.58-24.3-0.167-2.64-0.333-5.27-0.501-7.91-0.439-6.92-0.873-13.8-1.31-20.8-0.726-11.6-1.46-23.2-2.19-34.7-0.0855-1.35-0.171-2.7-0.257-4.05-1.84-29.1-3.86-58.1-5.94-87.1-0.0634-0.883-0.127-1.77-0.192-2.68-0.649-9.05-0.649-9.05-1.31-18.1-1.51-20.8-1.51-20.8 3.73-27.9 2.59-1.95 4.64-1.73 7.84-1.71z" fill="#4F1BC4"/>
<path transform="translate(778,901)" d="m0 0c6.6 5.74 9.56 11 10.3 19.8 0.797 35.3-20.2 68.3-38.8 96.9-0.924 1.43-1.83 2.88-2.69 4.34-1 1.67-1 1.67-2.82 4h-4c-1.55-1.55-1.23-3.1-1.34-5.26-0.0756-1.38-0.0756-1.38-0.153-2.78-0.0509-1.01-0.102-2.02-0.154-3.06-0.0571-1.05-0.114-2.11-0.173-3.19-0.124-2.29-0.245-4.57-0.365-6.86-0.317-6.05-0.648-12.1-0.981-18.2-0.101-1.85-0.101-1.85-0.205-3.73-0.443-7.96-0.94-15.9-1.49-23.9-0.0696-1.01-0.139-2.01-0.211-3.05-0.328-4.72-0.665-9.43-1.01-14.1-0.595-8.28-1.06-16.6-1.18-24.9-0.0202-0.739-0.0404-1.48-0.0612-2.24-0.0179-4.47 0.606-7.24 3.33-10.8 9.99-9.18 30.7-10.1 42-3z" fill="#FCFDFF"/>
<path transform="translate(470,536)" d="m0 0c4.89 0.334 7.69 1.35 11 5 3.16 7.03 4.91 14.3 6.31 21.9 0.203 1.05 0.406 2.1 0.615 3.18 0.702 3.65 1.39 7.29 2.07 10.9 0.27 1.44 0.54 2.88 0.81 4.32 0.14 0.744 0.279 1.49 0.423 2.25 0.585 3.12 1.17 6.24 1.76 9.35 0.3 1.59 0.599 3.19 0.898 4.78 2.4 12.8 4.99 25.5 7.78 38.1 0.857 3.89 1.66 7.79 2.38 11.7 1.54 8.21 3.13 15.1 7.68 22.3 2.59 4.34 2.46 8.5 2.52 13.5 0.0258 1.29 0.0516 2.57 0.0781 3.9-0.35 3.97-1.23 6.36-3.33 9.73-2.46 1.23-3.72 0.986-6.44 0.688-0.782-0.0786-1.56-0.157-2.37-0.238-2.19-0.449-2.19-0.449-5.19-2.45v-2c-0.598-0.186-1.2-0.371-1.81-0.562-3.97-2.61-4.96-7.45-6-11.9-0.208-1.23-0.415-2.46-0.629-3.73-0.121-0.704-0.242-1.41-0.367-2.13-0.406-2.37-0.801-4.75-1.2-7.12-0.292-1.71-0.585-3.43-0.878-5.14-0.665-3.89-1.32-7.77-1.98-11.7-1.89-11.2-3.81-22.4-5.73-33.7-0.722-4.21-1.44-8.43-2.15-12.6-2.13-12.6-4.31-25.1-7.03-37.5-1.13-5.25-1.91-10.4-2.1-15.7-0.0464-0.723-0.0928-1.45-0.141-2.19-0.21-4.43 0.298-7.91 2.02-12 0.33-0.33 0.66-0.66 1-1z" fill="#4F1BC4"/>
<path transform="translate(910,536)" d="m0 0c4.87 0.216 7.58 1.58 11 5 3.6 5.7 4.35 12 5.5 18.6 0.432 2.35 0.865 4.7 1.3 7.04 0.206 1.11 0.412 2.23 0.624 3.38 0.852 4.47 1.9 8.87 2.96 13.3 0.862 3.83 1.45 7.7 2.06 11.6 0.508 2.91 1.14 5.73 1.85 8.6 1.43 6.09 2.6 12.2 3.72 18.4 0.368 1.99 0.737 3.97 1.11 5.96 0.567 3.05 1.13 6.11 1.67 9.17 2.03 11.4 4.25 21.7 9.65 32 3.57 6.99 4.86 13.7 2.99 21.4-1.29 3.72-2.1 5.43-5.43 7.65-4.91 0.8-7.87-0.706-12-3.12-5.83-5.39-7.87-11.7-8.94-19.4-0.141-0.898-0.282-1.8-0.428-2.72-0.445-2.85-0.864-5.71-1.28-8.57-0.287-1.87-0.576-3.75-0.867-5.62-0.713-4.62-1.41-9.24-2.1-13.9-0.655-4.37-1.32-8.73-1.99-13.1-0.113-0.754-0.227-1.51-0.343-2.28-0.552-3.55-1.21-7.03-2.1-10.5-0.812-3.2-1.43-6.29-1.9-9.55-0.154-1.04-0.307-2.08-0.465-3.15-0.158-1.09-0.317-2.18-0.48-3.31-1.26-8.43-2.62-16.8-4.25-25.2-0.167-0.867-0.334-1.73-0.506-2.63-0.667-3.45-1.35-6.89-2.06-10.3-1.19-6.11-1.5-12.1-1.55-18.3-0.00935-0.796-0.0187-1.59-0.0283-2.41 0.0322-5.72 0.0322-5.72 2.28-7.96z" fill="#4F1BC4"/>
<path transform="translate(906 461)" d="m0 0c9.21 0.0553 9.21 0.0553 12.8 2.27 4.37 4.85 5.22 7.99 5.31 14.4 0.029 0.673 0.058 1.35 0.0879 2.04 0.044 3.44-0.147 5.25-2.25 8.02-2.15 1.56-2.15 1.56-4.9 2.19-4.78-0.919-7.83-3.23-11.2-6.62-3.75-5.94-4.2-13.1-4-20 2-2 2-2 4.21-2.27z" fill="#4F1BC4"/>
<path transform="translate(470 461)" d="m0 0c0.936 0.0967 1.87 0.193 2.84 0.293 2.85 0.531 5.19 1.23 7.79 2.52 3.9 6.05 3.96 13 3 20-2.06 3.38-2.06 3.38-5 5-4.42 0.245-7.26-0.863-10.8-3.44-5.08-4.76-6.31-11.3-6.62-18 0.375-3.56 0.375-3.56 1.56-5.3 2.55-1.78 4.14-1.43 7.19-1.08z" fill="#4F1BC4"/>
<path transform="translate(1030,1020)" d="m0 0 4 1z" fill="#FCFDFF"/>
<path transform="translate(1224,808)" d="m0 0 2 1z" fill="#000002"/>
</svg>
